<svg id="Layer_1" data-name="Layer 1" xmlns="http://www.w3.org/2000/svg" viewBox="0 0 443.34 302.46"><defs><style>.cls-1{fill:#fff;}</style></defs><polygon class="cls-1" points="32.24 43.81 0 38.4 1.48 252.53 168.3 286.27 31.38 225.91 32.24 43.81"/><polygon class="cls-1" points="83.91 15.54 50.32 0 51.95 211.5 189.21 275.69 83.77 201.39 83.91 15.54"/><polygon class="cls-1" points="393.02 0 359.43 15.54 359.56 201.39 254.13 275.69 391.38 211.5 393.02 0"/><polygon class="cls-1" points="411.1 43.81 411.96 225.91 275.04 286.27 441.85 252.53 443.34 38.4 411.1 43.81"/><path class="cls-1" d="M170,271.38l.54.28,21-150.11,53,3.74V385.78L207,359.27V189.57l-.65-.16L183.63,342.78,156,323.3,137.52,174.12l-.43-.11V310L117.6,296.25V116.32L150,118.61Z" transform="translate(-28.33 -98.77)"/><path class="cls-1" d="M255.27,125.3l127.24-9v19.55L295.07,148v78.31l82.28-28.63v19.64l-82.28,34.17,0,106.75-39.84,27.9Z" transform="translate(-28.33 -98.77)"/><path class="cls-1" d="M211.12,392.69c-.38.55-.76,1.12-1.15,1.72,0,2.27.07,4.55.11,6.82h-3.94V376.16q1.77,1.5,3.59,2.82l.15,9.64.07,0a55.71,55.71,0,0,1,4.64-6.54c1.25.73,2.53,1.4,3.81,2a47.4,47.4,0,0,0-5,6,84.56,84.56,0,0,0,5.79,11.06h-4A88.36,88.36,0,0,1,211.12,392.69Z" transform="translate(-28.33 -98.77)"/><path class="cls-1" d="M227.32,387.61c1.33.41,2.67.77,4,1.1q.36,6.29.73,12.52h-3.94Q227.71,394.45,227.32,387.61Zm3.61-1.36c0,.57.07,1.15.11,1.73-1.18-.31-2.35-.64-3.51-1,0-.62-.08-1.25-.11-1.87C228.58,385.52,229.76,385.9,230.93,386.25Z" transform="translate(-28.33 -98.77)"/><path class="cls-1" d="M240.52,390.33a84.69,84.69,0,0,0,12.74.49c0,.49,0,1,0,1.48-1.43.05-2.86.06-4.29.05,0,3,0,5.92.05,8.88h-3.94l-.21-9c-1.43-.07-2.85-.18-4.27-.32Z" transform="translate(-28.33 -98.77)"/><path class="cls-1" d="M273.38,401.23h-4c-.18-.78-.36-1.54-.54-2.29l-4.86.19-.79,2.1h-3.62c1.48-3.65,3-7.46,4.6-11.56q3-.51,5.94-1.28C271.24,392.32,272.31,396.57,273.38,401.23Zm-8.79-3.71c1.27-.07,2.55-.16,3.83-.26q-.76-3.09-1.54-6h-.07Q265.69,394.52,264.59,397.52Z" transform="translate(-28.33 -98.77)"/><path class="cls-1" d="M294,382.36v3.26c0,4.08-1.83,6.88-5.69,7.73l-1.82.43c-.07,2.49-.15,5-.22,7.45h-3.94q.38-8.84.74-17.76a58,58,0,0,0,5.54-3.25C292.32,377.66,294,378.24,294,382.36Zm-7.23,1.83c-.07,2.25-.13,4.5-.2,6.75.61-.19,1.21-.38,1.81-.59a2.55,2.55,0,0,0,1.9-2.75c0-1.11,0-2.22.05-3.34,0-1.6-.6-1.71-1.79-1Z" transform="translate(-28.33 -98.77)"/></svg>